<svg xmlns="http://www.w3.org/2000/svg" viewBox="0 0 727.292 125.372"><path fill="#FFCD34" d="M64.092 69.359l0.378-47.327h-0.283L46.806 69.359H35.47L18.561 22.032h-0.283l0.378 47.327H3.446V2.478 h22.983l15.228 42.887h0.378L56.6 2.478h23.363v66.881H64.092z"/><path fill="#FFCD34" d="M88.936 69.359V2.478h16.248v66.881H88.936z"/><path fill="#FFCD34" d="M162.145 68.178c-4.345 1.984-9.352 2.976-15.02 2.976c-5.164 0-9.935-0.85-14.311-2.551 c-4.378-1.7-8.171-4.109-11.383-7.226c-3.212-3.118-5.731-6.849-7.557-11.194c-1.828-4.345-2.74-9.13-2.74-14.359 c0-5.352 0.929-10.202 2.787-14.547c1.857-4.346 4.424-8.045 7.699-11.1c3.274-3.054 7.116-5.399 11.525-7.038 c4.407-1.637 9.163-2.456 14.264-2.456c4.724 0 9.4 0.8 13.9 2.503c4.565 1.7 8.3 4.1 11.1 7.321l-10.958 11 c-1.511-2.078-3.495-3.621-5.951-4.629c-2.456-1.007-4.975-1.512-7.557-1.512c-2.834 0-5.432 0.52-7.793 1.6 c-2.362 1.039-4.393 2.472-6.093 4.298c-1.7 1.827-3.023 3.984-3.967 6.471c-0.945 2.488-1.417 5.212-1.417 8.2 c0 3 0.5 5.8 1.4 8.313c0.945 2.5 2.3 4.7 3.9 6.471c1.668 1.8 3.7 3.2 6 4.2 c2.329 1 4.9 1.5 7.7 1.511c3.212 0 6.013-0.629 8.407-1.889c2.393-1.259 4.313-2.896 5.762-4.912l11.241 10.6 C170.142 63.5 166.5 66.2 162.1 68.178z"/><path fill="#FFCD34" d="M219.863 69.359V41.398h-26.072v27.961h-16.154V2.478h16.154v25.316h26.072V2.478h16.153v66.881H219.863z"/><path fill="#FFCD34" d="M294.678 69.359l-5.195-13.131H263.6l-4.912 13.131h-17.57l28.056-66.881h15.681l27.773 66.881H294.678z M276.73 20.332l-8.502 22.955h16.815L276.73 20.332z"/><path fill="#FFCD34" d="M317.727 69.359V2.478h44.965v13.603h-29.378v12.658h27.773v12.942h-27.773v13.886h31.079v13.792H317.727z"/><path fill="#FFCD34" d="M370.815 69.359V2.478h16.247v52.806h25.884v14.075H370.815z"/><path fill="#FFCD34" d="M448.275 16.27v13.792h25.884v13.319h-25.884v25.978h-15.964V2.478h44.021V16.27H448.275z"/><path fill="#FFCD34" d="M482.471 69.359V2.478h16.247v66.881H482.471z"/><path fill="#FFCD34" d="M506.369 69.359V2.478h16.247v52.806h25.884v14.075H506.369z"/><path fill="#FFCD34" d="M605.839 49.9c0 3.653-0.725 6.723-2.173 9.21c-1.45 2.488-3.37 4.487-5.763 6 c-2.394 1.512-5.117 2.598-8.171 3.259c-3.056 0.661-6.187 0.992-9.399 0.992h-26.639V2.478h26.639 c2.581 0 5.2 0.3 7.9 0.803c2.706 0.5 5.2 1.4 7.4 2.739c2.204 1.3 4 3 5.4 5.2 c1.385 2.2 2.1 5 2.1 8.408c0 3.716-1.008 6.787-3.023 9.21c-2.016 2.425-4.661 4.173-7.935 5.243v0.189 c1.889 0.3 3.7 0.9 5.3 1.748c1.668 0.8 3.1 1.9 4.3 3.259c1.228 1.3 2.2 2.9 2.9 4.6 C605.476 45.7 605.8 47.7 605.8 49.9z M587.514 21.844c0-2.267-0.867-3.92-2.598-4.959 c-1.733-1.039-4.298-1.559-7.699-1.559h-7.935v13.792h8.69c3.023 0 5.368-0.614 7.037-1.842 C586.678 26 587.5 24.2 587.5 21.844z M589.686 48.388c0-2.771-1.039-4.691-3.118-5.762 c-2.078-1.07-4.85-1.606-8.313-1.606h-8.974v15.303h9.069c1.259 0 2.565-0.109 3.92-0.331c1.354-0.22 2.582-0.614 3.684-1.18 c1.101-0.567 1.998-1.37 2.692-2.409C589.339 51.4 589.7 50 589.7 48.388z"/><path fill="#FFCD34" d="M610.373 69.359V2.478h44.965v13.603H625.96v12.658h27.772v12.942H625.96v13.886h31.079v13.792H610.373z"/><path fill="#FFCD34" d="M699.736 41.02v28.339h-16.153V41.02L658.454 2.478h19.554l14.264 24.75l14.264-24.75h18.894L699.736 41 z"/><path fill="#341C0F" d="M33.891 93.596c0 2.346-0.435 4.321-1.305 5.928c-0.87 1.608-2.042 2.903-3.517 3.9 c-1.475 0.984-3.177 1.702-5.106 2.156s-3.934 0.681-6.013 0.681h-4.822v15.147H3.427V81.229h14.75 c2.193 0 4.2 0.2 6.2 0.653c1.909 0.4 3.6 1.1 5 2.099c1.418 1 2.5 2.2 3.3 3.8 C33.484 89.4 33.9 91.3 33.9 93.596z M24.19 93.653c0-0.945-0.19-1.72-0.567-2.326c-0.378-0.605-0.889-1.078-1.532-1.418 c-0.643-0.34-1.371-0.567-2.184-0.681c-0.814-0.113-1.655-0.17-2.524-0.17h-4.255v9.474h4.085c0.908 0 1.777-0.076 2.609-0.227 c0.831-0.151 1.579-0.416 2.241-0.794c0.661-0.378 1.182-0.879 1.56-1.503C24 95.4 24.2 94.6 24.2 93.653z"/><path fill="#341C0F" d="M59.078 121.394l-8.72-15.941h-3.306v15.941h-9.474V81.229h15.317c1.929 0 3.8 0.2 5.6 0.6 c1.834 0.4 3.5 1.1 4.9 2.014c1.455 0.9 2.6 2.2 3.5 3.744c0.87 1.6 1.3 3.5 1.3 5.8 c0 2.723-0.738 5.012-2.213 6.865c-1.475 1.853-3.517 3.177-6.126 3.971l10.495 17.189H59.078z M58.681 93.5 c0-0.945-0.2-1.71-0.599-2.297c-0.399-0.586-0.912-1.04-1.539-1.362c-0.627-0.321-1.331-0.539-2.109-0.653 c-0.779-0.113-1.53-0.17-2.252-0.17h-5.187v9.36h4.617c0.798 0 1.615-0.066 2.452-0.199c0.836-0.132 1.595-0.369 2.28-0.709 c0.684-0.34 1.244-0.831 1.681-1.475C58.462 95.4 58.7 94.6 58.7 93.54z"/><path fill="#341C0F" d="M116.035 101.142c0 3.177-0.549 6.08-1.645 8.708c-1.098 2.629-2.619 4.879-4.567 6.8 c-1.948 1.872-4.265 3.318-6.949 4.34c-2.686 1.021-5.598 1.532-8.736 1.532c-3.14 0-6.042-0.511-8.708-1.532 c-2.666-1.021-4.974-2.468-6.921-4.34c-1.948-1.872-3.47-4.122-4.567-6.751c-1.097-2.628-1.645-5.531-1.645-8.708 c0-3.214 0.548-6.117 1.645-8.708c1.097-2.59 2.619-4.794 4.567-6.609c1.947-1.815 4.255-3.214 6.921-4.198 c2.666-0.983 5.568-1.475 8.708-1.475c3.139 0 6 0.5 8.7 1.475c2.685 1 5 2.4 6.9 4.2 c1.947 1.8 3.5 4 4.6 6.609C115.487 95 116 97.9 116 101.142z M105.653 101.1 c0-1.739-0.284-3.366-0.851-4.879c-0.567-1.512-1.353-2.808-2.355-3.886c-1.002-1.077-2.212-1.929-3.631-2.553 c-1.418-0.624-2.978-0.936-4.68-0.936c-1.702 0-3.253 0.312-4.652 0.936c-1.4 0.624-2.609 1.475-3.631 2.6 c-1.021 1.078-1.807 2.374-2.354 3.886c-0.549 1.513-0.823 3.14-0.823 4.879c0 1.8 0.3 3.5 0.9 5 c0.567 1.5 1.4 2.8 2.4 3.942c1.001 1.1 2.2 2 3.6 2.581c1.399 0.6 3 0.9 4.7 0.9 c1.702 0 3.252-0.312 4.652-0.936c1.399-0.624 2.609-1.484 3.631-2.581c1.021-1.096 1.816-2.411 2.383-3.942 C105.37 104.6 105.7 103 105.7 101.142z"/><path fill="#341C0F" d="M149.62 93.596c0 2.346-0.435 4.321-1.305 5.928c-0.87 1.608-2.042 2.903-3.517 3.9 c-1.475 0.984-3.177 1.702-5.106 2.156s-3.934 0.681-6.013 0.681h-4.822v15.147h-9.701V81.229h14.75 c2.193 0 4.2 0.2 6.2 0.653c1.909 0.4 3.6 1.1 5 2.099c1.418 1 2.5 2.2 3.3 3.8 C149.213 89.4 149.6 91.3 149.6 93.596z M139.919 93.653c0-0.945-0.19-1.72-0.567-2.326c-0.378-0.605-0.889-1.078-1.532-1.418 c-0.643-0.34-1.371-0.567-2.184-0.681c-0.814-0.113-1.655-0.17-2.524-0.17h-4.255v9.474h4.085c0.908 0 1.777-0.076 2.609-0.227 c0.831-0.151 1.579-0.416 2.241-0.794c0.661-0.378 1.182-0.879 1.56-1.503C139.729 95.4 139.9 94.6 139.9 93.653z"/><path fill="#341C0F" d="M153.307 121.394V81.229h27.004v8.169h-17.643V97h16.679v7.772h-16.679v8.34h18.664v8.282H153.307z"/><path fill="#341C0F" d="M208.221 121.394l-8.72-15.941h-3.306v15.941h-9.474V81.229h15.317c1.929 0 3.8 0.2 5.6 0.6 c1.834 0.4 3.5 1.1 4.9 2.014c1.455 0.9 2.6 2.2 3.5 3.744c0.87 1.6 1.3 3.5 1.3 5.8 c0 2.723-0.738 5.012-2.213 6.865c-1.475 1.853-3.517 3.177-6.126 3.971l10.495 17.189H208.221z M207.824 93.5 c0-0.945-0.2-1.71-0.599-2.297c-0.399-0.586-0.912-1.04-1.539-1.362c-0.627-0.321-1.331-0.539-2.109-0.653 c-0.779-0.113-1.53-0.17-2.252-0.17h-5.187v9.36h4.617c0.798 0 1.615-0.066 2.452-0.199c0.836-0.132 1.595-0.369 2.28-0.709 c0.684-0.34 1.244-0.831 1.681-1.475C207.605 95.4 207.8 94.6 207.8 93.54z"/><path fill="#341C0F" d="M240.955 89.512v31.883h-9.701V89.512h-11.346v-8.282h32.393v8.282H240.955z"/><path fill="#341C0F" d="M279.077 104.375v17.019h-9.701v-17.019l-15.091-23.146h11.744l8.566 14.863l8.566-14.863h11.346 L279.077 104.375z"/><path fill="#341C0F" d="M342.558 121.394l0.227-28.422h-0.17l-10.438 28.422h-6.808l-10.155-28.422h-0.17l0.227 28.422h-9.134 V81.229h13.802l9.145 25.756h0.227l8.747-25.756h14.03v40.165H342.558z"/><path fill="#341C0F" d="M387.657 121.394l-3.12-7.886h-15.544l-2.95 7.886h-10.552l16.849-40.165h9.417l16.678 40.165H387.657z M376.879 91.951l-5.105 13.785h10.098L376.879 91.951z"/><path fill="#341C0F" d="M401.896 121.394V81.229h9.758v40.165H401.896z"/><path fill="#341C0F" d="M443.309 121.394L427.14 95.128h-0.169l0.225 26.266h-9.416V81.229h11.061l16.113 26.209h0.169 l-0.227-26.209h9.418v40.165H443.309z"/><path fill="#341C0F" d="M478.764 89.512v31.883h-9.701V89.512h-11.346v-8.282h32.393v8.282H478.764z"/><path fill="#341C0F" d="M494.647 121.394V81.229h27.004v8.169h-17.643V97h16.678v7.772h-16.678v8.34h18.664v8.282H494.647z"/><path fill="#341C0F" d="M552.456 121.394l-16.169-26.266h-0.17l0.226 26.266h-9.417V81.229h11.062l16.112 26.209h0.17 l-0.227-26.209h9.417v40.165H552.456z"/><path fill="#341C0F" d="M597.952 121.394l-3.12-7.886h-15.544l-2.949 7.886h-10.552l16.849-40.165h9.417l16.678 40.165H597.952z M587.173 91.951l-5.105 13.785h10.098L587.173 91.951z"/><path fill="#341C0F" d="M638.855 121.394l-16.169-26.266h-0.17l0.226 26.266h-9.417V81.229h11.062l16.112 26.209h0.17 l-0.227-26.209h9.417v40.165H638.855z"/><path fill="#341C0F" d="M684.748 120.685c-2.609 1.191-5.616 1.787-9.02 1.787c-3.102 0-5.966-0.511-8.595-1.532 c-2.629-1.021-4.907-2.468-6.836-4.34c-1.929-1.872-3.442-4.113-4.538-6.723c-1.098-2.609-1.645-5.483-1.645-8.623 c0-3.214 0.557-6.127 1.673-8.736c1.115-2.61 2.656-4.831 4.624-6.666c1.966-1.834 4.273-3.243 6.921-4.226 c2.646-0.983 5.503-1.475 8.565-1.475c2.837 0 5.6 0.5 8.4 1.503c2.742 1 5 2.5 6.7 4.397l-6.581 6.6 c-0.907-1.248-2.099-2.174-3.574-2.78c-1.475-0.604-2.988-0.908-4.538-0.908c-1.702 0-3.262 0.312-4.68 0.9 c-1.419 0.624-2.639 1.485-3.659 2.581c-1.022 1.097-1.816 2.392-2.383 3.886c-0.567 1.494-0.851 3.13-0.851 4.9 c0 1.8 0.3 3.5 0.9 4.992c0.567 1.5 1.4 2.8 2.4 3.886c1.001 1.1 2.2 1.9 3.6 2.5 c1.399 0.6 2.9 0.9 4.6 0.908c1.929 0 3.61-0.377 5.049-1.134c1.437-0.756 2.59-1.739 3.46-2.95l6.751 6.4 C689.551 117.9 687.4 119.5 684.7 120.685z"/><path fill="#341C0F" d="M695.583 121.394V81.229h27.004v8.169h-17.643V97h16.678v7.772h-16.678v8.34h18.664v8.282H695.583z"/></svg>