<svg xmlns="http://www.w3.org/2000/svg" viewBox="0 0 123.18 123.575"><polygon fill="#FFCD34" points="86.1,58.4 93,56.3 93,48.3 86.1,50.4"/><polygon fill="#FFCD34" points="95,65.3 100.9,63.5 100.9,56 95,57.8"/><polygon fill="#FFCD34" points="86.1,68.1 93,65.9 93,58.4 86.1,60.5"/><polygon fill="#FFCD34" points="95,55.7 100.9,53.9 100.9,45.9 95,47.7"/><path fill="#FFCD34" d="M98.961 26.935V15.53h-11.67l-3.699-3.615L31.212 3.95L2.637 45.084v5.051l6.881 2.026l-0.019 48.1 l50.318 20.432l50.449-16.422l0.005-53.437l7.649 2.686l4.045-4.146L98.961 26.935z M55.986 77.134l-33.869-9.16l-0.097 9.8 l31.99 8.907v9.451L21.436 86.28l-0.061 14.946l-8.858-3.391V55.218l43.469 10.444V77.134z M55.102 55.005l-10.567-2.604 l17.02-28.666l-0.18-0.033L33.505 49.684l-6.975-1.719l7.371-29.306l-0.162-0.03L16.539 45.504l-8.691-2.142l24.309-36.31 L45.05 9.124L39.24 34.43l0.23 0.049l23.565-22.465l14.829 2.383L55.102 55.005z M93.034 103.852V75.516l-15.807 4.86v28.575 l-15.594 5.125l-0.119-58.438l20.53-37.042l23.294 22.728l0.072 58.584L93.034 103.852z"/></svg>