<svg xmlns="http://www.w3.org/2000/svg" viewBox="0 0 729.429 259.108"><path fill="#FFCD34" d="M65.758 203.729l0.378-47.327h-0.283l-17.381 47.327H37.135l-16.909-47.327h-0.283l0.378 47.327H5.111 v-66.881h22.983l15.228 42.887H43.7l14.565-42.887h23.363v66.881H65.758z"/><path fill="#FFCD34" d="M90.601 203.729v-66.881h16.248v66.881H90.601z"/><path fill="#FFCD34" d="M163.811 202.548c-4.345 1.984-9.352 2.976-15.02 2.976c-5.164 0-9.935-0.85-14.311-2.551 c-4.378-1.7-8.171-4.109-11.383-7.226c-3.212-3.118-5.731-6.849-7.557-11.194c-1.828-4.345-2.74-9.13-2.74-14.359 c0-5.352 0.929-10.202 2.787-14.547c1.857-4.346 4.424-8.045 7.699-11.1c3.274-3.054 7.116-5.4 11.525-7.038 c4.407-1.637 9.163-2.456 14.264-2.456c4.724 0 9.4 0.8 13.9 2.503c4.565 1.7 8.3 4.1 11.1 7.321l-10.958 11 c-1.511-2.078-3.495-3.621-5.951-4.629c-2.456-1.007-4.975-1.512-7.557-1.512c-2.834 0-5.432 0.52-7.793 1.6 c-2.362 1.039-4.393 2.472-6.093 4.298c-1.7 1.827-3.023 3.984-3.967 6.471c-0.945 2.488-1.417 5.212-1.417 8.2 c0 3 0.5 5.8 1.4 8.313c0.945 2.5 2.3 4.7 3.9 6.471c1.668 1.8 3.7 3.2 6 4.2 c2.329 1 4.9 1.5 7.7 1.511c3.212 0 6.013-0.629 8.407-1.889c2.393-1.259 4.313-2.896 5.762-4.912l11.241 10.6 C171.808 197.9 168.2 200.6 163.8 202.548z"/><path fill="#FFCD34" d="M221.529 203.729v-27.961h-26.072v27.961h-16.154v-66.881h16.154v25.316h26.072v-25.316h16.153v66.881 H221.529z"/><path fill="#FFCD34" d="M296.344 203.729l-5.195-13.131h-25.883l-4.912 13.131h-17.57l28.056-66.881h15.681l27.773 66.881H296.344z M278.396 154.702l-8.502 22.955h16.815L278.396 154.702z"/><path fill="#FFCD34" d="M319.392 203.729v-66.881h44.965v13.603h-29.378v12.658h27.773v12.942h-27.773v13.886h31.079v13.792 H319.392z"/><path fill="#FFCD34" d="M372.481 203.729v-66.881h16.247v52.806h25.884v14.075H372.481z"/><path fill="#FFCD34" d="M449.94 150.639v13.792h25.884v13.319H449.94v25.978h-15.964v-66.881h44.021v13.792H449.94z"/><path fill="#FFCD34" d="M484.136 203.729v-66.881h16.247v66.881H484.136z"/><path fill="#FFCD34" d="M508.035 203.729v-66.881h16.247v52.806h25.884v14.075H508.035z"/><path fill="#FFCD34" d="M607.505 184.269c0 3.653-0.725 6.723-2.173 9.21c-1.45 2.488-3.37 4.487-5.763 6 c-2.394 1.512-5.117 2.598-8.171 3.259c-3.056 0.661-6.187 0.992-9.399 0.992H555.36v-66.881h26.639 c2.581 0 5.2 0.3 7.9 0.803c2.706 0.5 5.2 1.4 7.4 2.739c2.204 1.3 4 3 5.4 5.2 c1.385 2.2 2.1 5 2.1 8.408c0 3.716-1.008 6.787-3.023 9.21c-2.016 2.425-4.661 4.173-7.935 5.243v0.189 c1.889 0.3 3.7 0.9 5.3 1.748c1.668 0.8 3.1 1.9 4.3 3.259c1.228 1.3 2.2 2.9 2.9 4.6 C607.141 180.1 607.5 182.1 607.5 184.269z M589.179 156.213c0-2.267-0.867-3.92-2.598-4.959 c-1.733-1.039-4.298-1.559-7.699-1.559h-7.935v13.792h8.69c3.023 0 5.368-0.614 7.037-1.842 C588.343 160.4 589.2 158.6 589.2 156.213z M591.352 182.758c0-2.771-1.039-4.691-3.118-5.762 c-2.078-1.07-4.85-1.606-8.313-1.606h-8.974v15.303h9.069c1.259 0 2.565-0.109 3.92-0.331c1.354-0.22 2.582-0.614 3.684-1.18 c1.101-0.567 1.998-1.37 2.692-2.409C591.004 185.7 591.4 184.4 591.4 182.758z"/><path fill="#FFCD34" d="M612.038 203.729v-66.881h44.965v13.603h-29.378v12.658h27.772v12.942h-27.772v13.886h31.079v13.792 H612.038z"/><path fill="#FFCD34" d="M701.401 175.389v28.339h-16.153v-28.339l-25.128-38.542h19.554l14.264 24.75l14.264-24.75h18.894 L701.401 175.389z"/><path fill="#341C0F" d="M35.542 227.965c0 2.346-0.435 4.321-1.305 5.928c-0.87 1.608-2.042 2.903-3.517 3.9 c-1.475 0.984-3.177 1.702-5.106 2.156s-3.934 0.681-6.013 0.681h-4.822v15.147H5.077v-40.166h14.75 c2.193 0 4.2 0.2 6.2 0.653c1.909 0.4 3.6 1.1 5 2.099c1.418 1 2.5 2.2 3.3 3.8 C35.135 223.7 35.5 225.7 35.5 227.965z M25.841 228.022c0-0.945-0.19-1.72-0.567-2.326 c-0.378-0.605-0.889-1.078-1.532-1.418c-0.643-0.34-1.371-0.567-2.184-0.681c-0.814-0.113-1.655-0.17-2.525-0.17h-4.255v9.474 h4.085c0.908 0 1.777-0.076 2.61-0.227c0.831-0.151 1.579-0.416 2.241-0.794c0.661-0.378 1.182-0.879 1.56-1.503 C25.651 229.8 25.8 229 25.8 228.022z"/><path fill="#341C0F" d="M60.73 255.764l-8.721-15.942h-3.306v15.942h-9.474v-40.166h15.317c1.929 0 3.8 0.2 5.6 0.6 c1.834 0.4 3.5 1.1 4.9 2.014c1.455 0.9 2.6 2.2 3.5 3.744c0.87 1.6 1.3 3.5 1.3 5.8 c0 2.723-0.738 5.012-2.213 6.865c-1.475 1.853-3.517 3.177-6.127 3.971l10.495 17.19H60.73z M60.333 227.9 c0-0.945-0.2-1.71-0.599-2.297c-0.399-0.586-0.912-1.04-1.539-1.362c-0.627-0.321-1.331-0.539-2.109-0.653 c-0.779-0.113-1.53-0.17-2.252-0.17h-5.187v9.361h4.617c0.798 0 1.615-0.066 2.452-0.199c0.836-0.132 1.595-0.369 2.28-0.709 c0.684-0.34 1.244-0.831 1.681-1.475C60.114 229.8 60.3 228.9 60.3 227.909z"/><path fill="#341C0F" d="M117.688 235.511c0 3.177-0.549 6.08-1.645 8.708c-1.098 2.629-2.619 4.879-4.567 6.8 c-1.948 1.872-4.265 3.318-6.95 4.34c-2.686 1.021-5.598 1.532-8.737 1.532c-3.14 0-6.042-0.511-8.708-1.532 c-2.666-1.021-4.974-2.468-6.921-4.34c-1.948-1.872-3.47-4.122-4.567-6.751c-1.097-2.628-1.645-5.531-1.645-8.708 c0-3.214 0.548-6.117 1.645-8.708c1.097-2.59 2.619-4.794 4.567-6.609c1.948-1.815 4.255-3.214 6.921-4.198 c2.666-0.983 5.568-1.475 8.708-1.475c3.139 0 6.1 0.5 8.7 1.475c2.685 1 5 2.4 7 4.2 c1.948 1.8 3.5 4 4.6 6.609C117.14 229.4 117.7 232.3 117.7 235.511z M107.306 235.5 c0-1.739-0.284-3.366-0.851-4.879c-0.567-1.512-1.353-2.808-2.355-3.886c-1.002-1.078-2.212-1.929-3.631-2.553 c-1.418-0.624-2.978-0.936-4.68-0.936s-3.253 0.312-4.652 0.936c-1.4 0.624-2.61 1.475-3.631 2.6 c-1.021 1.078-1.807 2.374-2.354 3.886c-0.549 1.513-0.823 3.14-0.823 4.879c0 1.8 0.3 3.5 0.9 5 c0.567 1.5 1.4 2.8 2.4 3.942c1.001 1.1 2.2 2 3.6 2.581c1.399 0.6 3 0.9 4.7 0.9 s3.252-0.312 4.652-0.936c1.399-0.624 2.61-1.484 3.631-2.581c1.021-1.096 1.816-2.411 2.383-3.942 C107.023 239 107.3 237.3 107.3 235.511z"/><path fill="#341C0F" d="M151.274 227.965c0 2.346-0.435 4.321-1.305 5.928c-0.87 1.608-2.042 2.903-3.517 3.9 c-1.475 0.984-3.177 1.702-5.106 2.156s-3.934 0.681-6.013 0.681h-4.822v15.147h-9.701v-40.166h14.75 c2.193 0 4.2 0.2 6.2 0.653c1.909 0.4 3.6 1.1 5 2.099c1.418 1 2.5 2.2 3.3 3.8 C150.866 223.7 151.3 225.7 151.3 227.965z M141.572 228.022c0-0.945-0.19-1.72-0.567-2.326 c-0.378-0.605-0.889-1.078-1.532-1.418c-0.643-0.34-1.371-0.567-2.184-0.681c-0.814-0.113-1.655-0.17-2.525-0.17h-4.255v9.474 h4.085c0.908 0 1.777-0.076 2.61-0.227c0.831-0.151 1.579-0.416 2.241-0.794c0.661-0.378 1.182-0.879 1.56-1.503 C141.382 229.8 141.6 229 141.6 228.022z"/><path fill="#341C0F" d="M154.961 255.764v-40.166h27.004v8.169h-17.644v7.602h16.679v7.772h-16.679v8.34h18.665v8.283H154.961z"/><path fill="#341C0F" d="M209.876 255.764l-8.721-15.942h-3.306v15.942h-9.474v-40.166h15.317c1.929 0 3.8 0.2 5.6 0.6 c1.834 0.4 3.5 1.1 4.9 2.014c1.455 0.9 2.6 2.2 3.5 3.744c0.87 1.6 1.3 3.5 1.3 5.8 c0 2.723-0.738 5.012-2.213 6.865c-1.475 1.853-3.517 3.177-6.127 3.971l10.495 17.19H209.876z M209.479 227.9 c0-0.945-0.2-1.71-0.599-2.297c-0.399-0.586-0.912-1.04-1.539-1.362c-0.627-0.321-1.331-0.539-2.109-0.653 c-0.779-0.113-1.53-0.17-2.252-0.17h-5.187v9.361h4.617c0.798 0 1.615-0.066 2.452-0.199c0.836-0.132 1.595-0.369 2.28-0.709 c0.684-0.34 1.244-0.831 1.681-1.475C209.26 229.8 209.5 228.9 209.5 227.909z"/><path fill="#341C0F" d="M242.61 223.881v31.883h-9.701v-31.883h-11.347v-8.283h32.394v8.283H242.61z"/><path fill="#341C0F" d="M280.734 238.744v17.02h-9.701v-17.02l-15.091-23.146h11.744l8.566 14.864l8.567-14.864h11.346 L280.734 238.744z"/><path fill="#341C0F" d="M344.216 255.764l0.227-28.422h-0.17l-10.439 28.422h-6.808l-10.155-28.422h-0.17l0.227 28.422h-9.134 v-40.166h13.803l9.145 25.756h0.227l8.747-25.756h14.031v40.166H344.216z"/><path fill="#341C0F" d="M389.316 255.764l-3.12-7.886h-15.544l-2.95 7.886h-10.552l16.849-40.166h9.417l16.679 40.166H389.316z M378.537 226.32l-5.105 13.786h10.098L378.537 226.32z"/><path fill="#341C0F" d="M403.555 255.764v-40.166h9.758v40.166H403.555z"/><path fill="#341C0F" d="M444.969 255.764l-16.17-26.267h-0.169l0.225 26.267h-9.416v-40.166h11.062l16.113 26.21h0.169 l-0.227-26.21h9.418v40.166H444.969z"/><path fill="#341C0F" d="M480.424 223.881v31.883h-9.701v-31.883h-11.346v-8.283h32.394v8.283H480.424z"/><path fill="#341C0F" d="M496.308 255.764v-40.166h27.004v8.169h-17.643v7.602h16.679v7.772h-16.679v8.34h18.665v8.283H496.308z"/><path fill="#341C0F" d="M554.118 255.764l-16.169-26.267h-0.17l0.226 26.267h-9.417v-40.166h11.062l16.112 26.21h0.17l-0.227-26.21 h9.417v40.166H554.118z"/><path fill="#341C0F" d="M599.615 255.764l-3.12-7.886H580.95l-2.949 7.886h-10.553l16.85-40.166h9.417l16.679 40.166H599.615z M588.836 226.32l-5.105 13.786h10.098L588.836 226.32z"/><path fill="#341C0F" d="M640.518 255.764l-16.169-26.267h-0.17l0.226 26.267h-9.417v-40.166h11.062l16.112 26.21h0.17l-0.227-26.21 h9.417v40.166H640.518z"/><path fill="#341C0F" d="M686.412 255.055c-2.609 1.191-5.616 1.787-9.02 1.787c-3.102 0-5.966-0.511-8.595-1.532 c-2.629-1.021-4.907-2.468-6.836-4.34c-1.929-1.872-3.442-4.113-4.538-6.723c-1.098-2.61-1.645-5.483-1.645-8.623 c0-3.214 0.557-6.127 1.673-8.737c1.115-2.61 2.656-4.831 4.624-6.666c1.966-1.834 4.273-3.243 6.921-4.227 c2.646-0.983 5.503-1.475 8.566-1.475c2.837 0 5.6 0.5 8.4 1.503c2.742 1 5 2.5 6.7 4.397l-6.582 6.6 c-0.907-1.248-2.099-2.174-3.574-2.78c-1.475-0.604-2.988-0.908-4.538-0.908c-1.702 0-3.262 0.312-4.68 0.9 c-1.419 0.624-2.639 1.485-3.659 2.581c-1.022 1.097-1.816 2.392-2.383 3.886c-0.567 1.494-0.851 3.13-0.851 4.9 c0 1.8 0.3 3.5 0.9 4.992c0.567 1.5 1.4 2.8 2.4 3.886c1.001 1.1 2.2 1.9 3.6 2.5 c1.399 0.6 2.9 0.9 4.6 0.908c1.929 0 3.61-0.377 5.049-1.134c1.437-0.756 2.59-1.74 3.46-2.95l6.752 6.4 C691.215 252.2 689 253.9 686.4 255.055z"/><path fill="#341C0F" d="M697.248 255.764v-40.166h27.004v8.169h-17.643v7.602h16.679v7.772h-16.679v8.34h18.665v8.283H697.248z"/><polygon fill="#FFCD34" points="391.3,57.8 398.2,55.7 398.2,47.7 391.3,49.8"/><polygon fill="#FFCD34" points="391.3,67.5 398.2,65.4 398.2,57.8 391.3,59.9"/><polygon fill="#FFCD34" points="400.2,64.7 406.2,62.9 406.2,55.4 400.2,57.2"/><polygon fill="#FFCD34" points="400.2,55.1 406.2,53.3 406.2,45.3 400.2,47.1"/><path fill="#FFCD34" d="M404.176 26.346V14.941h-11.67l-3.699-3.615l-52.381-7.965l-28.575 41.134v5.051l6.881 2.026l-0.019 48.1 l50.318 20.431l50.449-16.422l0.005-53.438l7.649 2.686l4.045-4.146L404.176 26.346z M361.201 76.545l-33.869-9.16l-0.097 9.8 l31.99 8.907v9.451l-32.574-9.856l-0.061 14.946l-8.858-3.391V54.628l43.469 10.444V76.545z M360.317 54.416l-10.567-2.604 l17.02-28.666l-0.18-0.033L338.72 49.095l-6.975-1.719l7.371-29.306l-0.162-0.03l-17.201 26.874l-8.691-2.142l24.309-36.31 l12.894 2.072l-5.81 25.306l0.23 0.049l23.565-22.465l14.829 2.383L360.317 54.416z M398.249 103.263V74.927l-15.807 4.86v28.575 l-15.594 5.125l-0.119-58.438l20.53-37.042l23.294 22.728l0.072 58.584L398.249 103.263z"/></svg>