<svg xmlns="http://www.w3.org/2000/svg" viewBox="0 0 874.634 123.738"><path fill="#FFCD34" d="M210.108 69.473l0.378-47.327h-0.283l-17.381 47.327h-11.336l-16.909-47.327h-0.283l0.378 47.327h-15.209 V2.592h22.983l15.228 42.887h0.378l14.565-42.887h23.363v66.881H210.108z"/><path fill="#FFCD34" d="M234.951 69.473V2.592h16.248v66.881H234.951z"/><path fill="#FFCD34" d="M308.161 68.292c-4.345 1.984-9.352 2.976-15.02 2.976c-5.164 0-9.935-0.85-14.311-2.551 c-4.378-1.7-8.171-4.109-11.383-7.226c-3.212-3.118-5.731-6.849-7.557-11.194c-1.828-4.345-2.74-9.13-2.74-14.359 c0-5.352 0.929-10.202 2.787-14.547c1.857-4.346 4.424-8.045 7.699-11.1c3.274-3.054 7.116-5.399 11.525-7.038 c4.407-1.637 9.163-2.456 14.264-2.456c4.724 0 9.4 0.8 13.9 2.503c4.565 1.7 8.3 4.1 11.1 7.321L307.5 21.6 c-1.511-2.078-3.495-3.621-5.951-4.629c-2.456-1.007-4.975-1.512-7.557-1.512c-2.834 0-5.432 0.52-7.793 1.6 c-2.362 1.039-4.393 2.472-6.093 4.298c-1.7 1.827-3.023 3.984-3.967 6.471c-0.945 2.488-1.417 5.212-1.417 8.2 c0 3 0.5 5.8 1.4 8.313c0.945 2.5 2.3 4.7 3.9 6.471c1.668 1.8 3.7 3.2 6 4.2 c2.329 1 4.9 1.5 7.7 1.511c3.212 0 6.013-0.629 8.407-1.889c2.393-1.259 4.313-2.896 5.762-4.912l11.241 10.6 C316.158 63.6 312.5 66.3 308.2 68.292z"/><path fill="#FFCD34" d="M365.879 69.473V41.511h-26.072v27.961h-16.154V2.592h16.154v25.316h26.072V2.592h16.153v66.881H365.879z"/><path fill="#FFCD34" d="M440.694 69.473l-5.195-13.131h-25.883l-4.912 13.131h-17.57l28.056-66.881h15.681l27.773 66.881H440.694z M422.746 20.446l-8.502 22.955h16.815L422.746 20.446z"/><path fill="#FFCD34" d="M463.742 69.473V2.592h44.965v13.603h-29.378v12.658h27.773v12.942h-27.773v13.886h31.079v13.792H463.742z"/><path fill="#FFCD34" d="M516.831 69.473V2.592h16.247v52.806h25.884v14.075H516.831z"/><path fill="#FFCD34" d="M594.291 16.383v13.792h25.884v13.319h-25.884v25.978h-15.964V2.592h44.021v13.792H594.291z"/><path fill="#FFCD34" d="M628.486 69.473V2.592h16.247v66.881H628.486z"/><path fill="#FFCD34" d="M652.385 69.473V2.592h16.247v52.806h25.884v14.075H652.385z"/><path fill="#FFCD34" d="M751.855 50.013c0 3.653-0.725 6.723-2.173 9.21c-1.45 2.488-3.37 4.487-5.763 6 c-2.394 1.512-5.117 2.598-8.171 3.259c-3.056 0.661-6.187 0.992-9.399 0.992h-26.639V2.592h26.639 c2.581 0 5.2 0.3 7.9 0.803c2.706 0.5 5.2 1.4 7.4 2.739c2.204 1.3 4 3 5.4 5.2 c1.385 2.2 2.1 5 2.1 8.408c0 3.716-1.008 6.787-3.023 9.21c-2.016 2.425-4.661 4.173-7.935 5.243v0.189 c1.889 0.3 3.7 0.9 5.3 1.748c1.668 0.8 3.1 1.9 4.3 3.259c1.228 1.3 2.2 2.9 2.9 4.6 C751.492 45.8 751.9 47.8 751.9 50.013z M733.529 21.957c0-2.267-0.867-3.92-2.598-4.959 c-1.733-1.039-4.298-1.559-7.699-1.559h-7.935v13.792h8.69c3.023 0 5.368-0.614 7.037-1.842 C732.693 26.2 733.5 24.4 733.5 21.957z M735.702 48.502c0-2.771-1.039-4.691-3.118-5.762 c-2.078-1.07-4.85-1.606-8.313-1.606h-8.974v15.303h9.069c1.259 0 2.565-0.109 3.92-0.331c1.354-0.22 2.582-0.614 3.684-1.18 c1.101-0.567 1.998-1.37 2.692-2.409C735.354 51.5 735.7 50.1 735.7 48.502z"/><path fill="#FFCD34" d="M756.388 69.473V2.592h44.965v13.603h-29.378v12.658h27.772v12.942h-27.772v13.886h31.079v13.792H756.388z"/><path fill="#FFCD34" d="M845.751 41.133v28.339h-16.153V41.133L804.47 2.592h19.554l14.264 24.75l14.264-24.75h18.894 L845.751 41.133z"/><path fill="#341C0F" d="M179.957 93.71c0 2.345-0.435 4.321-1.305 5.928c-0.87 1.608-2.042 2.903-3.517 3.9 c-1.475 0.984-3.177 1.702-5.105 2.156c-1.929 0.454-3.934 0.681-6.013 0.681h-4.822v15.146h-9.7V81.344h14.749 c2.193 0 4.2 0.2 6.2 0.653c1.909 0.4 3.6 1.1 5 2.098c1.418 1 2.5 2.2 3.3 3.8 C179.55 89.5 180 91.4 180 93.71z M170.257 93.767c0-0.945-0.19-1.72-0.567-2.326 c-0.378-0.605-0.889-1.078-1.532-1.418c-0.643-0.34-1.371-0.567-2.184-0.681c-0.814-0.113-1.654-0.17-2.524-0.17h-4.254v9.473 h4.084c0.907 0 1.777-0.076 2.609-0.227c0.831-0.151 1.579-0.415 2.241-0.794c0.661-0.378 1.182-0.879 1.56-1.503 C170.067 95.5 170.3 94.7 170.3 93.767z"/><path fill="#341C0F" d="M205.143 121.506l-8.72-15.94h-3.306v15.94h-9.473V81.344h15.316c1.929 0 3.8 0.2 5.6 0.6 c1.834 0.4 3.5 1.1 4.9 2.014c1.455 0.9 2.6 2.2 3.5 3.744c0.869 1.6 1.3 3.5 1.3 5.8 c0 2.723-0.738 5.012-2.213 6.864c-1.475 1.853-3.517 3.176-6.126 3.971l10.494 17.188H205.143z M204.746 93.7 c0-0.945-0.2-1.71-0.599-2.297c-0.399-0.586-0.912-1.04-1.539-1.361c-0.627-0.321-1.33-0.539-2.109-0.653 c-0.779-0.113-1.53-0.17-2.252-0.17h-5.187v9.36h4.617c0.798 0 1.615-0.066 2.452-0.199c0.836-0.132 1.595-0.369 2.28-0.709 c0.684-0.34 1.244-0.831 1.681-1.475C204.527 95.5 204.7 94.7 204.7 93.654z"/><path fill="#341C0F" d="M262.096 101.255c0 3.177-0.549 6.08-1.645 8.708c-1.098 2.629-2.619 4.878-4.566 6.8 c-1.948 1.872-4.265 3.318-6.949 4.339c-2.686 1.021-5.597 1.532-8.736 1.532c-3.14 0-6.042-0.511-8.708-1.532 c-2.666-1.021-4.973-2.467-6.921-4.339c-1.948-1.872-3.47-4.122-4.566-6.75c-1.097-2.628-1.645-5.531-1.645-8.708 c0-3.214 0.548-6.117 1.645-8.708c1.097-2.59 2.619-4.793 4.566-6.609c1.947-1.815 4.255-3.214 6.921-4.197 c2.666-0.983 5.568-1.475 8.708-1.475c3.138 0 6 0.5 8.7 1.475c2.684 1 5 2.4 6.9 4.2 c1.947 1.8 3.5 4 4.6 6.609C261.547 95.1 262.1 98 262.1 101.255z M251.714 101.3 c0-1.739-0.284-3.366-0.851-4.879c-0.567-1.512-1.353-2.808-2.354-3.886c-1.002-1.077-2.212-1.929-3.63-2.552 s-2.978-0.936-4.68-0.936s-3.253 0.312-4.652 0.936c-1.399 0.624-2.609 1.475-3.63 2.552c-1.021 1.078-1.806 2.374-2.354 3.9 c-0.549 1.513-0.822 3.14-0.822 4.879c0 1.8 0.3 3.5 0.9 5.02c0.567 1.5 1.4 2.8 2.4 3.9 c1.001 1.1 2.2 2 3.6 2.581c1.399 0.6 3 0.9 4.7 0.936s3.252-0.312 4.651-0.936 c1.399-0.624 2.609-1.483 3.63-2.581c1.021-1.096 1.815-2.411 2.383-3.942C251.431 104.7 251.7 103.1 251.7 101.255z"/><path fill="#341C0F" d="M295.678 93.71c0 2.345-0.435 4.321-1.305 5.928c-0.87 1.608-2.042 2.903-3.517 3.9 c-1.475 0.984-3.177 1.702-5.105 2.156c-1.929 0.454-3.934 0.681-6.013 0.681h-4.822v15.146h-9.7V81.344h14.749 c2.193 0 4.2 0.2 6.2 0.653c1.909 0.4 3.6 1.1 5 2.098c1.418 1 2.5 2.2 3.3 3.8 C295.271 89.5 295.7 91.4 295.7 93.71z M285.977 93.767c0-0.945-0.19-1.72-0.567-2.326 c-0.378-0.605-0.889-1.078-1.532-1.418c-0.643-0.34-1.371-0.567-2.184-0.681c-0.814-0.113-1.654-0.17-2.524-0.17h-4.254v9.473H279 c0.907 0 1.777-0.076 2.609-0.227c0.831-0.151 1.579-0.415 2.241-0.794c0.661-0.378 1.182-0.879 1.56-1.503 C285.787 95.5 286 94.7 286 93.767z"/><path fill="#341C0F" d="M299.365 121.506V81.344h27.002v8.169h-17.642v7.601h16.678v7.771h-16.678v8.339h18.663v8.282H299.365z"/><path fill="#341C0F" d="M354.275 121.506l-8.72-15.94h-3.306v15.94h-9.473V81.344h15.316c1.929 0 3.8 0.2 5.6 0.6 c1.834 0.4 3.5 1.1 4.9 2.014c1.455 0.9 2.6 2.2 3.5 3.744c0.869 1.6 1.3 3.5 1.3 5.8 c0 2.723-0.738 5.012-2.213 6.864c-1.475 1.853-3.517 3.176-6.126 3.971l10.494 17.188H354.275z M353.878 93.7 c0-0.945-0.2-1.71-0.599-2.297c-0.399-0.586-0.912-1.04-1.539-1.361c-0.627-0.321-1.33-0.539-2.109-0.653 c-0.779-0.113-1.53-0.17-2.252-0.17h-5.187v9.36h4.617c0.798 0 1.615-0.066 2.452-0.199c0.836-0.132 1.595-0.369 2.28-0.709 c0.684-0.34 1.244-0.831 1.681-1.475C353.659 95.5 353.9 94.7 353.9 93.654z"/><path fill="#341C0F" d="M387.006 89.626v31.88h-9.7v-31.88H365.96v-8.282h32.391v8.282H387.006z"/><path fill="#341C0F" d="M425.126 104.488v17.018h-9.7v-17.018l-15.089-23.144h11.743l8.565 14.862l8.566-14.862h11.345 L425.126 104.488z"/><path fill="#341C0F" d="M488.601 121.506l0.227-28.42h-0.17l-10.438 28.42h-6.807l-10.154-28.42h-0.17l0.227 28.42h-9.133V81.344 h13.801l9.144 25.754h0.227l8.746-25.754h14.029v40.162H488.601z"/><path fill="#341C0F" d="M533.697 121.506l-3.12-7.885h-15.542l-2.95 7.885h-10.551l16.848-40.162h9.416l16.677 40.162H533.697z M522.92 92.065l-5.105 13.784h10.097L522.92 92.065z"/><path fill="#341C0F" d="M547.935 121.506V81.344h9.757v40.162H547.935z"/><path fill="#341C0F" d="M589.346 121.506l-16.168-26.264h-0.169l0.225 26.264h-9.416V81.344h11.061l16.112 26.207h0.169 l-0.227-26.207h9.417v40.162H589.346z"/><path fill="#341C0F" d="M624.797 89.626v31.88h-9.7v-31.88h-11.345v-8.282h32.391v8.282H624.797z"/><path fill="#341C0F" d="M640.679 121.506V81.344h27.002v8.169h-17.641v7.601h16.677v7.771h-16.677v8.339h18.663v8.282H640.679z"/><path fill="#341C0F" d="M698.484 121.506l-16.167-26.264h-0.17l0.226 26.264h-9.416V81.344h11.061l16.111 26.207h0.17 l-0.227-26.207h9.416v40.162H698.484z"/><path fill="#341C0F" d="M743.977 121.506l-3.12-7.885h-15.543l-2.949 7.885h-10.552l16.848-40.162h9.417l16.677 40.162H743.977z M733.199 92.065l-5.105 13.784h10.097L733.199 92.065z"/><path fill="#341C0F" d="M784.876 121.506l-16.167-26.264h-0.17l0.226 26.264h-9.416V81.344h11.061l16.111 26.207h0.17 l-0.227-26.207h9.416v40.162H784.876z"/><path fill="#341C0F" d="M830.766 120.797c-2.609 1.191-5.616 1.787-9.019 1.787c-3.101 0-5.966-0.511-8.594-1.532 c-2.629-1.021-4.907-2.467-6.835-4.339c-1.929-1.872-3.442-4.113-4.538-6.722c-1.098-2.609-1.645-5.483-1.645-8.622 c0-3.214 0.557-6.126 1.673-8.736c1.115-2.61 2.656-4.831 4.623-6.665c1.966-1.834 4.273-3.243 6.921-4.226 c2.646-0.983 5.502-1.475 8.565-1.475c2.837 0 5.6 0.5 8.4 1.503c2.742 1 5 2.5 6.7 4.397l-6.581 6.6 c-0.907-1.248-2.098-2.174-3.574-2.78c-1.475-0.604-2.988-0.907-4.538-0.907c-1.702 0-3.262 0.312-4.68 0.9 c-1.419 0.624-2.638 1.484-3.659 2.581c-1.022 1.097-1.816 2.392-2.383 3.886c-0.567 1.494-0.851 3.129-0.851 4.9 c0 1.8 0.3 3.5 0.9 4.992c0.567 1.5 1.4 2.8 2.4 3.886c1.001 1.1 2.2 1.9 3.6 2.5 c1.399 0.6 2.9 0.9 4.6 0.907c1.929 0 3.61-0.377 5.049-1.134c1.437-0.756 2.59-1.739 3.46-2.95l6.751 6.4 C835.569 118 833.4 119.6 830.8 120.797z"/><path fill="#341C0F" d="M841.601 121.506V81.344h27.002v8.169h-17.641v7.601h16.677v7.771h-16.677v8.339h18.663v8.282H841.601z"/><polygon fill="#FFCD34" points="94.5,64.4 100.5,62.5 100.5,55 94.5,56.8"/><polygon fill="#FFCD34" points="85.6,67.1 92.6,65 92.6,57.4 85.6,59.5"/><polygon fill="#FFCD34" points="85.6,57.4 92.6,55.3 92.6,47.3 85.6,49.4"/><path fill="#FFCD34" d="M98.486 25.968V14.563h-11.67l-3.699-3.615L30.736 2.983L2.162 44.116v5.051l6.881 2.026L9.024 99.3 l50.318 20.431l50.449-16.422l0.005-53.438l7.649 2.686l4.045-4.146L98.486 25.968z M55.511 76.166l-33.869-9.16l-0.097 9.8 l31.99 8.907v9.451L20.96 85.313l-0.061 14.946l-8.858-3.391V54.25l43.469 10.444V76.166z M54.626 54.038l-10.567-2.604 l17.02-28.666l-0.18-0.033L33.03 48.716l-6.975-1.719l7.371-29.306l-0.162-0.03L16.064 44.536l-8.691-2.141l24.309-36.31 l12.894 2.072l-5.81 25.306l0.23 0.049L62.56 11.047l14.829 2.383L54.626 54.038z M92.558 102.884V74.549l-15.807 4.86v28.575 l-15.594 5.125l-0.119-58.438l20.53-37.042l23.294 22.728l0.072 58.584L92.558 102.884z"/><polygon fill="#FFCD34" points="94.5,54.7 100.5,52.9 100.5,44.9 94.5,46.7"/></svg>