<svg xmlns="http://www.w3.org/2000/svg" viewBox="0 0 433.5 90.5"><style>.style0{fill:	#3C5999;}.style1{fill:	#FFFFFF;}</style><path d="M433.5 76.3c0 7.8-6.4 14.2-14.2 14.2H14.2C6.4 90.5 0 84.1 0 76.3V14.2C0 6.4 6.4 0 14.2 0h405.2 c7.8 0 14.2 6.4 14.2 14.2V76.3z" class="style0"/><path d="M23.9 72.1h54v-54h-54V72.1z M48.2 42.1h7.1v-6.1c0-7.1 4.3-10.9 10.6-10.9c3 0 5.6 0.2 6.4 0.3v7.4l-4.4 0 c-3.4 0-4.1 1.6-4.1 4v5.3h8.2L71 50.4h-7.1v21.2h-8.5V50.4h-7.1V42.1z M123.5 24.9h0.2c-0.2 3.5-0.2 5.7-0.3 6.5 c0 0.8 0 1.5 0 2.2v13.2h5.5V18.8h-8l-7 21.3h-0.1l-6.6-21.3h-8v27.8h5.3V33.7c0-1.5-0.1-4.4-0.4-8.9h0.2l6.7 21.8h5.4L123.5 24.9z M141.8 18.8h-5.9v27.8h5.9V18.8z M160 47.1c2.8 0 5.4-0.5 7.7-1.4v-5c-2.8 1-5.1 1.5-7.1 1.5c-4.7 0-7-3.1-7-9.3 c0-3 0.6-5.3 1.8-7c1.2-1.7 2.9-2.5 5.2-2.5c1 0 2.1 0.2 3.1 0.6c1.1 0.4 2.1 0.8 3.1 1.3l1.9-4.8c-2.7-1.3-5.4-2-8.2-2 c-2.7 0-5 0.6-6.9 1.7c-2 1.2-3.5 2.8-4.5 5c-1.1 2.2-1.6 4.7-1.6 7.6c0 4.6 1.1 8.1 3.2 10.6C152.9 45.8 156 47.1 160 47.1z M179.5 34.7h11v12h5.9V18.8h-5.9v10.9h-11V18.8h-5.9v27.8h5.9V34.7z M209.8 18.7l-9.8 28h6.4l2-6.6h10.1l2 6.6h6.4l-9.9-28H209.8z M209.8 35.1c2-6.4 3.2-10.4 3.6-12.1c0.1 0.5 0.3 1.1 0.5 1.9c0.2 0.8 1.3 4.2 3.2 10.2H209.8z M246.4 41.8h-10.1v-7.2h9.4v-4.8 h-9.4v-6.1h10.1v-4.8h-16v27.8h16V41.8z M258.1 18.8h-5.9v27.8h17.2v-4.9h-11.3V18.8z M290.2 35.7h9.4v-4.8h-9.4v-7.2h10.1v-4.8 h-16v27.8h5.8V35.7z M305.8 46.7h5.9V18.8h-5.9V46.7z M335.9 41.8h-11.3v-23h-5.9v27.8h17.2V41.8z M356.4 32.1v-0.2 c1.3-0.2 2.3-0.9 3.1-1.9c0.8-1.1 1.2-2.4 1.2-4.1c0-2.4-0.9-4.2-2.7-5.4c-1.8-1.1-4.6-1.7-8.6-1.7h-8.7v27.8h10.4 c3.1 0 5.6-0.7 7.5-2.1c1.8-1.4 2.8-3.4 2.8-5.9c0-1.8-0.4-3.2-1.2-4.3C359.4 33.2 358.1 32.5 356.4 32.1z M346.6 23.7h3.1 c1.7 0 2.9 0.2 3.7 0.7c0.8 0.5 1.2 1.2 1.2 2.3c0 1.1-0.4 2-1.1 2.5c-0.7 0.5-1.9 0.7-3.5 0.7h-3.4V23.7z M354.1 40.9 c-0.8 0.6-2 0.9-3.6 0.9h-3.8v-7.3h3.7c3.3 0 5 1.2 5 3.5C355.2 39.3 354.8 40.2 354.1 40.9z M383 41.8h-10.1v-7.2h9.4v-4.8h-9.4 v-6.1H383v-4.8h-16v27.8h16V41.8z M394.5 46.7h5.9V35.8l9.2-17h-6.4l-5.8 11.5l-5.8-11.5h-6.4l9.2 17.2V46.7z M103.4 54.7h-5.6 v17.5h3.7V66h1.6c2.2 0 3.8-0.5 5-1.5c1.2-1 1.8-2.4 1.8-4.3c0-1.8-0.6-3.2-1.7-4.1C107.1 55.1 105.5 54.7 103.4 54.7z M105.3 62.2 c-0.6 0.5-1.4 0.7-2.6 0.7h-1.2v-5.2h1.7c1 0 1.8 0.2 2.2 0.6c0.5 0.4 0.7 1.1 0.7 1.9C106.1 61.1 105.8 61.8 105.3 62.2z M124.4 62.7c0.6-0.8 0.8-1.7 0.8-2.7c0-1.8-0.6-3.1-1.7-3.9c-1.1-0.9-2.9-1.3-5.3-1.3h-5.1v17.5h3.7v-6.7h2l4.2 6.7h4.1 c-0.8-1.1-2.5-3.7-5.1-7.6C123 64.1 123.8 63.5 124.4 62.7z M120.7 61.9c-0.6 0.4-1.4 0.6-2.6 0.6h-1.2v-4.7h1.1 c1.2 0 2.1 0.2 2.6 0.5c0.6 0.4 0.9 0.9 0.9 1.8C121.5 60.9 121.2 61.5 120.7 61.9z M136.9 54.4c-2.7 0-4.8 0.8-6.2 2.3 c-1.4 1.5-2.2 3.8-2.2 6.7c0 2.9 0.7 5.1 2.2 6.7c1.4 1.6 3.5 2.3 6.2 2.3c2.7 0 4.7-0.8 6.2-2.3c1.4-1.6 2.2-3.8 2.2-6.7 c0-2.9-0.7-5.1-2.1-6.7C141.6 55.2 139.6 54.4 136.9 54.4z M136.9 69.3c-1.5 0-2.6-0.5-3.3-1.5c-0.7-1-1.1-2.5-1.1-4.4 c0-2 0.4-3.4 1.1-4.4c0.7-1 1.9-1.5 3.3-1.5c2.9 0 4.4 2 4.4 5.9C141.3 67.3 139.8 69.3 136.9 69.3z M154.4 54.7h-5.6v17.5h3.7V66 h1.6c2.2 0 3.8-0.5 5-1.5c1.2-1 1.8-2.4 1.8-4.3c0-1.8-0.6-3.2-1.7-4.1C158.2 55.1 156.5 54.7 154.4 54.7z M156.3 62.2 c-0.6 0.5-1.4 0.7-2.6 0.7h-1.2v-5.2h1.7c1 0 1.8 0.2 2.2 0.6c0.5 0.4 0.7 1.1 0.7 1.9C157.2 61.1 156.9 61.8 156.3 62.2z M164.2 72.2h10.1v-3.1h-6.4v-4.5h5.9v-3h-5.9v-3.8h6.4v-3h-10.1V72.2z M189.2 62.7c0.6-0.8 0.8-1.7 0.8-2.7c0-1.8-0.6-3.1-1.7-3.9 c-1.1-0.9-2.9-1.3-5.3-1.3h-5.1v17.5h3.7v-6.7h2l4.2 6.7h4.1c-0.8-1.1-2.5-3.7-5.1-7.6C187.8 64.1 188.6 63.5 189.2 62.7z M185.4 61.9c-0.6 0.4-1.4 0.6-2.6 0.6h-1.2v-4.7h1.1c1.2 0 2.1 0.2 2.6 0.5c0.6 0.4 0.9 0.9 0.9 1.8 C186.3 60.9 186 61.5 185.4 61.9z M192.4 57.8h4.7v14.4h3.7V57.8h4.7v-3.1h-13.2V57.8z M213.7 61.9l-3.6-7.2h-4l5.8 10.8v6.7h3.7 v-6.8l5.8-10.7h-4L213.7 61.9z M239.2 68.1L239.2 68.1L235 54.7h-5v17.5h3.3V64c0-0.9-0.1-2.8-0.2-5.6h0.1l4.2 13.7h3.4l4.5-13.7 h0.1c-0.1 2.2-0.1 3.6-0.2 4.1c0 0.5 0 1 0 1.4v8.3h3.5V54.7h-5L239.2 68.1z M257 54.6l-6.2 17.6h4l1.3-4.2h6.4l1.3 4.2h4 l-6.2-17.6H257z M257 64.9c1.2-4 2-6.6 2.3-7.6c0.1 0.3 0.2 0.7 0.3 1.2c0.1 0.5 0.8 2.6 2 6.4H257z M270 72.2h3.7V54.7H270V72.2z M290.2 63c0 0.9 0.1 2.5 0.2 4.8h-0.1l-7.6-13.1h-4.7v17.5h3.3v-8.2c0-1-0.1-2.7-0.2-5h0.1l7.6 13.2h4.7V54.7h-3.3V63z M296.3 57.8h4.7v14.4h3.7V57.8h4.7v-3.1h-13.2V57.8z M312.2 72.2h10.1v-3.1h-6.4v-4.5h5.9v-3h-5.9v-3.8h6.4v-3h-10.1V72.2z M338.1 63c0 0.9 0.1 2.5 0.2 4.8h-0.1l-7.6-13.1h-4.7v17.5h3.3v-8.2c0-1-0.1-2.7-0.2-5h0.1l7.6 13.2h4.7V54.7h-3.3V63z M349.8 54.6l-6.2 17.6h4l1.3-4.2h6.4l1.3 4.2h4l-6.2-17.6H349.8z M349.8 64.9c1.2-4 2-6.6 2.3-7.6c0.1 0.3 0.2 0.7 0.3 1.2 c0.1 0.5 0.8 2.6 2 6.4H349.8z M374.9 63c0 0.9 0.1 2.5 0.2 4.8H375l-7.6-13.1h-4.7v17.5h3.3v-8.2c0-1-0.1-2.7-0.2-5h0.1l7.6 13.2 h4.7V54.7h-3.3V63z M390.1 57.5c0.6 0 1.3 0.1 2 0.3c0.7 0.2 1.3 0.5 2 0.8l1.2-3c-1.7-0.8-3.4-1.2-5.1-1.2c-1.7 0-3.1 0.4-4.4 1.1 c-1.2 0.7-2.2 1.8-2.9 3.1c-0.7 1.4-1 3-1 4.8c0 2.9 0.7 5.1 2 6.6c1.3 1.5 3.3 2.3 5.8 2.3c1.8 0 3.4-0.3 4.8-0.9v-3.1 c-1.7 0.6-3.2 0.9-4.5 0.9c-2.9 0-4.4-1.9-4.4-5.8c0-1.9 0.4-3.3 1.1-4.4C387.6 58 388.7 57.5 390.1 57.5z M398.2 72.2h10.1v-3.1 H402v-4.5h5.9v-3H402v-3.8h6.4v-3h-10.1V72.2z" class="style1"/></svg>