<?xml version="1.0" encoding="utf-8"?>
<!-- Generator: Adobe Illustrator 18.1.1, SVG Export Plug-In . SVG Version: 6.00 Build 0)  -->
<!DOCTYPE svg PUBLIC "-//W3C//DTD SVG 1.1//EN" "http://www.w3.org/Graphics/SVG/1.1/DTD/svg11.dtd">
<svg version="1.1" id="logo" xmlns="http://www.w3.org/2000/svg" xmlns:xlink="http://www.w3.org/1999/xlink" x="0px" y="0px"
	 viewBox="0 0 216.8 104.3" enable-background="new 0 0 216.8 104.3" xml:space="preserve">
<g id="common_art_1_">
</g>
<g>
	<g>
		<path fill="#0070BA" d="M130,17.4L117.3,5.8C113,1.9,107.4,0,101.7,0c-5.6,0-11.3,1.9-15.6,5.7l-81,73.5c-9.4,8.8-5.5,25,7.4,25.1
			h24.9c0,0,0,0,0,0h157.2c11.4,0,14.8-14.2,6.6-22L130,17.4z"/>
		<path fill="#004379" d="M194.8,104.3c11.4,0,14.8-14.2,6.6-22L130,17.4c-3.8-3.4-8.8-5.1-13.8-5.1c-5,0-10,1.7-13.8,5.1L31,82.2
			c-8.3,7.7-4.9,22.1,6.5,22.1H194.8z"/>
	</g>
	<g>
		<g>
			<path fill="#FFFFFF" d="M109.5,64.7c-0.5,0-1.2,0.4-1.5,0.9c0,0-3.5,6-3.9,6.6c-0.2,0.3-0.4,0.1-0.4,0c0-0.2-1.1-6.6-1.1-6.6
				c-0.1-0.5-0.7-1-1.3-1l-2.2,0c-0.5,0-0.9,0.4-0.7,0.9c0,0,1.7,9.5,2,11.7c0.2,1.2,0,1.4,0,1.4l-2.2,3.8c-0.3,0.5-0.1,0.9,0.4,0.9
				l2.5,0c0.5,0,1.2-0.4,1.5-0.9l9.8-16.5c0,0,0.9-1.4,0.1-1.4C111.8,64.7,109.5,64.7,109.5,64.7"/>
		</g>
		<g>
			<path fill="#FFFFFF" d="M78.6,68.1c-0.7,0.5-1.8,0.8-3.1,0.8h-0.6c-0.5,0-0.9-0.4-0.7-0.9l0.7-3.2c0.1-0.5,0.6-0.9,1.2-0.9l0.8,0
				c0.9,0,1.7,0.2,2.1,0.5c0.5,0.3,0.7,0.8,0.7,1.5C79.8,66.8,79.4,67.5,78.6,68.1 M83.9,63.2c-0.3-0.6-0.8-1.1-1.3-1.4
				c-0.6-0.4-1.3-0.6-2.1-0.8c-0.8-0.1-1.8-0.2-2.9-0.2l-5.1,0c-0.5,0-1,0.4-1.2,0.9l-3.5,15c-0.1,0.5,0.2,0.9,0.7,0.9H71
				c0.5,0,1.1-0.4,1.2-0.9L73,73c0.1-0.5,0.6-0.9,1.2-0.9h0.7c3,0,5.3-0.6,7-1.8c1.7-1.2,2.5-2.9,2.5-4.9
				C84.4,64.5,84.2,63.8,83.9,63.2"/>
		</g>
		<g>
			<path fill="#FFFFFF" d="M95.8,65.3c-0.9-0.5-2.4-0.8-4.4-0.8c-1,0-2,0.1-3,0.2c-0.7,0.1-0.8,0.1-1.3,0.2
				c-0.9,0.2-1.1,1.1-1.1,1.1l-0.3,1.2c-0.2,0.8,0.3,0.7,0.5,0.7c0.4-0.1,0.6-0.2,1.5-0.4c0.8-0.2,1.6-0.3,2.3-0.3
				c1,0,1.7,0.1,2.2,0.3c0.5,0.2,0.7,0.6,0.7,1.1c0,0.1,0,0.2,0,0.3c0,0.1-0.1,0.2-0.4,0.2c-1.4,0.1-2.4,0.2-3.6,0.4
				c-1.2,0.2-2.2,0.5-3.1,0.9c-0.9,0.4-1.6,1-2.1,1.7c-0.5,0.7-0.7,1.6-0.7,2.6c0,0.9,0.3,1.7,1,2.3c0.7,0.6,1.5,0.9,2.6,0.9
				c0.7,0,1.2-0.1,1.5-0.1c0.4-0.1,0.8-0.2,1.2-0.4c0.3-0.1,0.7-0.3,1-0.6c0.4-0.2,0.6-0.4,0.9-0.6l0,0l-0.1,0.4l0,0l0,0
				c-0.1,0.5,0.2,0.9,0.7,0.9l0,0h0l0,0c0.3,0,1.4,0,1.9,0h0.3c0,0,0,0,0,0c0.5-0.1,0.9-0.5,1.1-0.9l1.8-7.7c0-0.2,0.1-0.4,0.1-0.6
				c0-0.2,0.1-0.4,0-0.6C97.1,66.6,96.7,65.8,95.8,65.3 M91.4,74.5c-0.3,0.2-0.6,0.4-1,0.5c-0.5,0.2-0.9,0.3-1.3,0.3
				c-0.6,0-1.1-0.1-1.4-0.3c-0.3-0.2-0.5-0.5-0.5-0.9c0-0.5,0.1-0.9,0.4-1.2c0.2-0.3,0.6-0.5,1-0.7c0.4-0.1,1-0.3,1.6-0.4
				c0.6-0.1,1.7-0.2,1.8-0.2c0.1,0,0.2-0.1,0.2,0.3c0,0.2-0.3,1.5-0.5,2.1C91.8,74.2,91.5,74.4,91.4,74.5"/>
		</g>
		<g>
			<path fill="#FFFFFF" d="M123.1,68.1c-0.7,0.5-1.8,0.8-3.1,0.8h-0.6c-0.5,0-0.9-0.4-0.7-0.9l0.7-3.2c0.1-0.5,0.6-0.9,1.2-0.9
				l0.8,0c0.9,0,1.7,0.2,2.1,0.5c0.5,0.3,0.7,0.8,0.7,1.5C124.2,66.8,123.8,67.5,123.1,68.1 M128.4,63.2c-0.3-0.6-0.8-1.1-1.3-1.4
				c-0.6-0.4-1.3-0.6-2.1-0.8c-0.8-0.1-1.8-0.2-2.9-0.2l-5.1,0c-0.5,0-1,0.4-1.2,0.9l-3.5,15c-0.1,0.5,0.2,0.9,0.7,0.9h2.5
				c0.5,0,1.1-0.4,1.2-0.9l0.9-3.6c0.1-0.5,0.6-0.9,1.2-0.9h0.7c3,0,5.3-0.6,7-1.8c1.7-1.2,2.5-2.9,2.5-4.9
				C128.9,64.5,128.7,63.8,128.4,63.2"/>
		</g>
		<g>
			<path fill="#FFFFFF" d="M140.2,65.3c-0.9-0.5-2.4-0.8-4.4-0.8c-1,0-2,0.1-3,0.2c-0.7,0.1-0.8,0.1-1.3,0.2
				c-0.9,0.2-1.1,1.1-1.1,1.1l-0.3,1.2c-0.2,0.8,0.3,0.7,0.5,0.7c0.4-0.1,0.6-0.2,1.5-0.4c0.8-0.2,1.6-0.3,2.3-0.3
				c1,0,1.7,0.1,2.2,0.3c0.5,0.2,0.7,0.6,0.7,1.1c0,0.1,0,0.2,0,0.3c0,0.1-0.1,0.2-0.4,0.2c-1.4,0.1-2.4,0.2-3.6,0.4
				c-1.2,0.2-2.2,0.5-3.1,0.9c-0.9,0.4-1.6,1-2.1,1.7c-0.5,0.7-0.7,1.6-0.7,2.6c0,0.9,0.3,1.7,1,2.3c0.7,0.6,1.5,0.9,2.6,0.9
				c0.7,0,1.2-0.1,1.5-0.1c0.4-0.1,0.8-0.2,1.2-0.4c0.3-0.1,0.7-0.3,1-0.6c0.4-0.2,0.6-0.4,0.9-0.6l0,0l-0.1,0.4l0,0l0,0
				c-0.1,0.5,0.2,0.9,0.7,0.9l0,0h0l0,0c0.3,0,1.4,0,1.9,0h0.3c0,0,0,0,0,0c0.5-0.1,0.9-0.5,1.1-0.9l1.8-7.7c0-0.2,0.1-0.4,0.1-0.6
				c0-0.2,0.1-0.4,0-0.6C141.6,66.6,141.1,65.8,140.2,65.3 M135.9,74.5c-0.3,0.2-0.6,0.4-1,0.5c-0.5,0.2-0.9,0.3-1.3,0.3
				c-0.6,0-1.1-0.1-1.4-0.3c-0.3-0.2-0.5-0.5-0.5-0.9c0-0.5,0.1-0.9,0.4-1.2c0.2-0.3,0.6-0.5,1-0.7c0.4-0.1,1-0.3,1.6-0.4
				c0.6-0.1,1.7-0.2,1.8-0.2c0.1,0,0.2-0.1,0.2,0.3c0,0.2-0.3,1.5-0.5,2.1C136.2,74.2,136,74.4,135.9,74.5"/>
		</g>
		<g>
			<path fill="#FFFFFF" d="M148.7,60.9h-2.2l0,0l0,0c-0.5,0-1,0.4-1.2,0.9c0,0,0,0,0,0.1c0,0-0.1,0.2-0.1,0.7l-3,13.7
				c-0.1,0.3-0.1,0.5-0.1,0.6l0,0c-0.1,0.5,0.2,0.9,0.7,0.9l0,0h2.3c0.5,0,1-0.4,1.2-0.9c0,0,0,0,0-0.1l3.3-14.9h0
				C149.6,61.3,149.3,60.9,148.7,60.9"/>
		</g>
	</g>
	<g>
		<path fill="#FFFFFF" d="M183.6,90.6c2.6,0,3.3-3.2,1.5-4.9l-15.9-14.5c-0.8-0.8-2-1.1-3.1-1.1c-1.1,0-2.2,0.4-3.1,1.1l-16,14.5
			c-1.8,1.7-1.1,4.9,1.5,4.9H183.6z"/>
		<g>
			<path fill="#004379" d="M156.4,79.5h1.3l-0.6,2.9h3.4l0.6-2.9h1.3l-1.5,7.3h-1.3l0.7-3.3h-3.4l-0.7,3.3h-1.3L156.4,79.5z"/>
			<path fill="#004379" d="M167.3,85.1c-0.4,1.2-1.3,1.8-2.5,1.8c-1.3,0-2.3-0.9-2.3-2.3c0-1.6,1-3.2,2.9-3.2c1.9,0,2.2,1.4,2.2,2.4
				c0,0.3,0,0.5-0.1,0.7h-3.9c0,0.1,0,0.2,0,0.3c0,0.7,0.4,1.2,1.2,1.2c0.6,0,1.1-0.3,1.3-0.9H167.3z M166.5,83.7c0-0.1,0-0.2,0-0.3
				c0-0.6-0.4-1.1-1.1-1.1c-0.9,0-1.4,0.6-1.6,1.4H166.5z"/>
			<path fill="#004379" d="M169.4,81.5h1.1l-0.2,1l0,0c0.3-0.6,1-1.2,1.7-1.2c0.2,0,0.4,0,0.6,0l-0.2,1.1c-0.1,0-0.3,0-0.4,0
				c-1.2,0-1.7,0.9-1.9,2l-0.5,2.3h-1.2L169.4,81.5z"/>
			<path fill="#004379" d="M177.5,85.1c-0.4,1.2-1.3,1.8-2.5,1.8c-1.3,0-2.3-0.9-2.3-2.3c0-1.6,1-3.2,2.9-3.2c1.9,0,2.2,1.4,2.2,2.4
				c0,0.3,0,0.5-0.1,0.7h-3.9c0,0.1,0,0.2,0,0.3c0,0.7,0.4,1.2,1.2,1.2c0.6,0,1.1-0.3,1.3-0.9H177.5z M176.6,83.7c0-0.1,0-0.2,0-0.3
				c0-0.6-0.4-1.1-1.1-1.1c-0.9,0-1.4,0.6-1.6,1.4H176.6z"/>
		</g>
	</g>
</g>
<g>
	<g>
		<g>
			<path fill="#004379" d="M212.8,99c-0.1,0-0.2,0-0.2,0c-0.1,0-0.2,0-0.2,0c-0.2,0-0.4-0.1-0.6-0.2c-0.1-0.1-0.2-0.3-0.2-0.6v-1.3
				h-0.3v-0.3h0.3v-0.7h0.4v0.7h0.8v0.3H212V98c0,0.1,0,0.2,0,0.3c0,0.1,0,0.1,0.1,0.2c0,0.1,0.1,0.1,0.1,0.1c0.1,0,0.1,0,0.2,0
				c0.1,0,0.1,0,0.2,0c0.1,0,0.1,0,0.2,0h0V99z"/>
		</g>
		<g>
			<path fill="#004379" d="M216.8,99h-0.4v-1.4c0-0.1,0-0.2,0-0.3c0-0.1,0-0.2-0.1-0.2c0-0.1-0.1-0.1-0.1-0.1c-0.1,0-0.1,0-0.3,0
				c-0.1,0-0.2,0-0.3,0.1c-0.1,0.1-0.2,0.1-0.3,0.2c0,0,0,0.1,0,0.1c0,0,0,0.1,0,0.1V99h-0.4v-1.4c0-0.1,0-0.2,0-0.3
				c0-0.1,0-0.2-0.1-0.2c0-0.1-0.1-0.1-0.1-0.1c-0.1,0-0.2,0-0.3,0c-0.1,0-0.2,0-0.3,0.1c-0.1,0.1-0.2,0.1-0.3,0.2V99h-0.4v-2.4h0.4
				v0.3c0.1-0.1,0.2-0.2,0.4-0.2c0.1-0.1,0.3-0.1,0.4-0.1c0.2,0,0.3,0,0.4,0.1c0.1,0.1,0.2,0.2,0.3,0.3c0.2-0.1,0.3-0.2,0.4-0.3
				c0.1-0.1,0.3-0.1,0.4-0.1c0.3,0,0.5,0.1,0.6,0.2c0.1,0.2,0.2,0.4,0.2,0.7V99z"/>
		</g>
	</g>
</g>
</svg>
